<?xml version="1.0" standalone="no"?><!DOCTYPE svg PUBLIC "-//W3C//DTD SVG 1.1//EN" "http://www.w3.org/Graphics/SVG/1.1/DTD/svg11.dtd"><svg t="1620659277297" class="icon" viewBox="0 0 1024 1024" version="1.1" xmlns="http://www.w3.org/2000/svg" p-id="14061" xmlns:xlink="http://www.w3.org/1999/xlink" width="200" height="200"><defs><style type="text/css"></style></defs><path d="M884.053333 0H133.546667C57.258667 0 0 57.6 0 134.4v755.2C0 966.4 57.258667 1024 133.546667 1024h756.906666c69.973333 0 133.546667-57.6 133.546667-134.4V134.4C1017.6 57.6 960.426667 0 884.053333 0zM73.130667 131.242667c0-32.298667 25.6-58.112 57.685333-58.112h762.368c32.042667 0 57.685333 25.813333 57.685333 58.112v342.016h-352.384c-12.8 0-32 6.485333-32 25.813333l-51.285333 122.624L406.272 253.866667c0-12.928-12.8-25.813333-25.6-25.813334s-25.6 0-38.442667 12.885334l-172.970666 232.32H73.130667V131.242667z m819.626666 819.626666H131.242667c-32.298667 0-58.112-25.173333-58.112-56.618666v-333.482667h116.181333c12.885333 0 25.813333-6.314667 32.256-12.586667L363.562667 365.653333l116.181333 390.101334c6.442667 18.901333 19.328 25.173333 32.256 25.173333s32.256-6.272 32.256-25.173333l77.44-201.344h322.688c2.816 204.928 2.816 318.165333 0 339.797333-4.181333 32.384-19.328 56.618667-51.626667 56.618667z" p-id="14062" fill="#ffffff"></path></svg>